<svg width="79" height="70" viewBox="0 0 79 70" fill="none" xmlns="http://www.w3.org/2000/svg">
<g filter="url(#filter0_d_43_5)">
<path d="M4 31C4 48.1208 19.8939 62 39.5 62C59.1061 62 75 48.1208 75 31C75 13.8792 59.1061 0 39.5 0C19.8939 0 4 13.8792 4 31Z" fill="#1877F2"/>
<path d="M57.25 31C57.25 22.475 49.2625 15.5 39.5 15.5C29.7375 15.5 21.75 22.475 21.75 31C21.75 38.75 28.1844 45.1437 36.6156 46.3062V35.4562H32.1781V31H36.6156V27.5125C36.6156 23.6375 39.2781 21.5063 43.2719 21.5063C45.2688 21.5063 47.2656 21.8938 47.2656 21.8938V25.7688H45.0469C42.8281 25.7688 42.1625 26.9312 42.1625 28.0938V31H47.0437L46.1562 35.4562H41.9406V46.5C50.8156 45.3375 57.25 38.75 57.25 31Z" fill="white"/>
</g>
<defs>
<filter id="filter0_d_43_5" x="0" y="0" width="79" height="70" filterUnits="userSpaceOnUse" color-interpolation-filters="sRGB">
<feFlood flood-opacity="0" result="BackgroundImageFix"/>
<feColorMatrix in="SourceAlpha" type="matrix" values="0 0 0 0 0 0 0 0 0 0 0 0 0 0 0 0 0 0 127 0" result="hardAlpha"/>
<feOffset dy="4"/>
<feGaussianBlur stdDeviation="2"/>
<feComposite in2="hardAlpha" operator="out"/>
<feColorMatrix type="matrix" values="0 0 0 0 0 0 0 0 0 0 0 0 0 0 0 0 0 0 0.25 0"/>
<feBlend mode="normal" in2="BackgroundImageFix" result="effect1_dropShadow_43_5"/>
<feBlend mode="normal" in="SourceGraphic" in2="effect1_dropShadow_43_5" result="shape"/>
</filter>
</defs>
</svg>
